<mxfile host="65bd71144e">
    <diagram id="dY7B6jDiLLIZFsYM4NQu" name="Page-1">
        <mxGraphModel dx="1185" dy="898" grid="1" gridSize="10" guides="1" tooltips="1" connect="1" arrows="1" fold="1" page="1" pageScale="1" pageWidth="827" pageHeight="1169" math="0" shadow="0">
            <root>
                <mxCell id="0"/>
                <mxCell id="1" parent="0"/>
                <mxCell id="46" value="Client's Application (Docker)" style="fillColor=none;strokeColor=#147EBA;dashed=1;verticalAlign=top;fontStyle=0;fontColor=#147EBA;strokeWidth=2;fontSize=16;" parent="1" vertex="1">
                    <mxGeometry x="40" y="130" width="620" height="390" as="geometry"/>
                </mxCell>
                <mxCell id="47" value="&lt;font style=&quot;font-size: 16px&quot;&gt;Client's EC2 instance&lt;/font&gt;" style="points=[[0,0],[0.25,0],[0.5,0],[0.75,0],[1,0],[1,0.25],[1,0.5],[1,0.75],[1,1],[0.75,1],[0.5,1],[0.25,1],[0,1],[0,0.75],[0,0.5],[0,0.25]];outlineConnect=0;gradientColor=none;html=1;whiteSpace=wrap;fontSize=12;fontStyle=0;container=1;pointerEvents=0;collapsible=0;recursiveResize=0;shape=mxgraph.aws4.group;grIcon=mxgraph.aws4.group_ec2_instance_contents;strokeColor=#D86613;fillColor=none;verticalAlign=top;align=left;spacingLeft=30;fontColor=#D86613;dashed=0;strokeWidth=2;" parent="1" vertex="1">
                    <mxGeometry x="20" y="90" width="660" height="440" as="geometry"/>
                </mxCell>
                <mxCell id="43" style="edgeStyle=orthogonalEdgeStyle;html=1;exitX=0.85;exitY=0.95;exitDx=0;exitDy=0;exitPerimeter=0;entryX=0.25;entryY=0;entryDx=0;entryDy=0;fontSize=16;startArrow=classic;startFill=1;elbow=vertical;strokeWidth=2;" parent="1" source="4" target="24" edge="1">
                    <mxGeometry relative="1" as="geometry"/>
                </mxCell>
                <mxCell id="4" value="MongoDB" style="shape=datastore;whiteSpace=wrap;html=1;fontSize=16;strokeWidth=2;" parent="1" vertex="1">
                    <mxGeometry x="146" y="240" width="110" height="60" as="geometry"/>
                </mxCell>
                <mxCell id="36" style="edgeStyle=orthogonalEdgeStyle;html=1;exitX=0.5;exitY=1;exitDx=0;exitDy=0;entryX=0.25;entryY=0;entryDx=0;entryDy=0;startArrow=none;startFill=0;elbow=vertical;fontSize=16;strokeWidth=2;" parent="1" source="5" target="35" edge="1">
                    <mxGeometry relative="1" as="geometry">
                        <Array as="points">
                            <mxPoint x="305" y="250"/>
                            <mxPoint x="390" y="250"/>
                        </Array>
                    </mxGeometry>
                </mxCell>
                <mxCell id="5" value="InfluxDB" style="shape=datastore;whiteSpace=wrap;html=1;fontSize=16;strokeWidth=2;" parent="1" vertex="1">
                    <mxGeometry x="250" y="170" width="110" height="60" as="geometry"/>
                </mxCell>
                <mxCell id="16" style="edgeStyle=elbowEdgeStyle;html=1;exitX=0.75;exitY=0;exitDx=0;exitDy=0;entryX=0;entryY=0.5;entryDx=0;entryDy=0;strokeColor=none;elbow=vertical;fontSize=16;strokeWidth=2;" parent="1" source="6" target="4" edge="1">
                    <mxGeometry relative="1" as="geometry">
                        <Array as="points">
                            <mxPoint x="240" y="280"/>
                        </Array>
                    </mxGeometry>
                </mxCell>
                <mxCell id="22" style="edgeStyle=orthogonalEdgeStyle;html=1;exitX=0.25;exitY=1;exitDx=0;exitDy=0;entryX=0.25;entryY=0;entryDx=0;entryDy=0;elbow=vertical;fontSize=16;strokeWidth=2;" parent="1" source="6" target="8" edge="1">
                    <mxGeometry relative="1" as="geometry"/>
                </mxCell>
                <mxCell id="27" style="edgeStyle=orthogonalEdgeStyle;html=1;exitX=0.25;exitY=0;exitDx=0;exitDy=0;entryX=0;entryY=0.5;entryDx=0;entryDy=0;elbow=vertical;startArrow=classic;startFill=1;fontSize=16;strokeWidth=2;" parent="1" source="6" target="5" edge="1">
                    <mxGeometry relative="1" as="geometry"/>
                </mxCell>
                <mxCell id="28" style="edgeStyle=orthogonalEdgeStyle;html=1;exitX=0.5;exitY=0;exitDx=0;exitDy=0;entryX=0;entryY=0.5;entryDx=0;entryDy=0;elbow=vertical;startArrow=classic;startFill=1;fontSize=16;strokeWidth=2;" parent="1" source="6" target="4" edge="1">
                    <mxGeometry relative="1" as="geometry"/>
                </mxCell>
                <mxCell id="6" value="Worker" style="rounded=1;whiteSpace=wrap;html=1;fontSize=16;strokeWidth=2;" parent="1" vertex="1">
                    <mxGeometry x="60" y="320" width="120" height="60" as="geometry"/>
                </mxCell>
                <mxCell id="45" style="edgeStyle=orthogonalEdgeStyle;html=1;exitX=0;exitY=0.5;exitDx=0;exitDy=0;entryX=1;entryY=0.75;entryDx=0;entryDy=0;fontSize=16;startArrow=classic;startFill=1;elbow=vertical;strokeWidth=2;" parent="1" source="7" target="8" edge="1">
                    <mxGeometry relative="1" as="geometry"/>
                </mxCell>
                <mxCell id="7" value="Worker (Beat)" style="rounded=1;whiteSpace=wrap;html=1;fontSize=16;strokeWidth=2;" parent="1" vertex="1">
                    <mxGeometry x="240" y="440" width="120" height="60" as="geometry"/>
                </mxCell>
                <mxCell id="23" style="edgeStyle=orthogonalEdgeStyle;html=1;exitX=0.75;exitY=0;exitDx=0;exitDy=0;entryX=0.75;entryY=1;entryDx=0;entryDy=0;elbow=vertical;fontSize=16;strokeWidth=2;" parent="1" source="8" target="6" edge="1">
                    <mxGeometry relative="1" as="geometry"/>
                </mxCell>
                <mxCell id="8" value="Redis" style="rounded=1;whiteSpace=wrap;html=1;fontSize=16;strokeWidth=2;" parent="1" vertex="1">
                    <mxGeometry x="60" y="425" width="120" height="60" as="geometry"/>
                </mxCell>
                <mxCell id="26" style="edgeStyle=orthogonalEdgeStyle;html=1;exitX=0;exitY=0.5;exitDx=0;exitDy=0;entryX=1;entryY=0.5;entryDx=0;entryDy=0;elbow=vertical;fontSize=16;strokeWidth=2;" parent="1" source="24" target="8" edge="1">
                    <mxGeometry relative="1" as="geometry"/>
                </mxCell>
                <mxCell id="44" style="edgeStyle=orthogonalEdgeStyle;html=1;exitX=0.75;exitY=0;exitDx=0;exitDy=0;entryX=0.15;entryY=0.95;entryDx=0;entryDy=0;entryPerimeter=0;fontSize=16;startArrow=classic;startFill=1;elbow=vertical;strokeWidth=2;" parent="1" source="24" target="5" edge="1">
                    <mxGeometry relative="1" as="geometry"/>
                </mxCell>
                <mxCell id="24" value="Web Dev" style="rounded=1;whiteSpace=wrap;html=1;fontSize=16;strokeWidth=2;" parent="1" vertex="1">
                    <mxGeometry x="240" y="360" width="120" height="60" as="geometry"/>
                </mxCell>
                <mxCell id="32" style="edgeStyle=orthogonalEdgeStyle;html=1;exitX=0;exitY=0.5;exitDx=0;exitDy=0;entryX=1;entryY=0.5;entryDx=0;entryDy=0;elbow=vertical;fontSize=16;strokeWidth=2;" parent="1" source="31" target="5" edge="1">
                    <mxGeometry relative="1" as="geometry"/>
                </mxCell>
                <mxCell id="31" value="Telegraf" style="rounded=1;whiteSpace=wrap;html=1;fontSize=16;strokeWidth=2;" parent="1" vertex="1">
                    <mxGeometry x="390" y="170" width="120" height="60" as="geometry"/>
                </mxCell>
                <mxCell id="34" style="edgeStyle=orthogonalEdgeStyle;html=1;exitX=0.5;exitY=0;exitDx=0;exitDy=0;entryX=1;entryY=0.5;entryDx=0;entryDy=0;startArrow=none;startFill=0;elbow=vertical;fontSize=16;strokeWidth=2;" parent="1" source="33" target="31" edge="1">
                    <mxGeometry relative="1" as="geometry"/>
                </mxCell>
                <mxCell id="39" style="edgeStyle=orthogonalEdgeStyle;html=1;exitX=0.5;exitY=1;exitDx=0;exitDy=0;entryX=0.75;entryY=0;entryDx=0;entryDy=0;startArrow=classic;startFill=1;elbow=vertical;fontSize=16;strokeWidth=2;" parent="1" source="33" target="37" edge="1">
                    <mxGeometry relative="1" as="geometry">
                        <Array as="points">
                            <mxPoint x="580" y="360"/>
                            <mxPoint x="480" y="360"/>
                        </Array>
                    </mxGeometry>
                </mxCell>
                <mxCell id="33" value="SFTP" style="rounded=1;whiteSpace=wrap;html=1;fontSize=16;strokeWidth=2;" parent="1" vertex="1">
                    <mxGeometry x="520" y="270" width="120" height="60" as="geometry"/>
                </mxCell>
                <mxCell id="38" style="edgeStyle=orthogonalEdgeStyle;html=1;exitX=0.5;exitY=1;exitDx=0;exitDy=0;entryX=0.25;entryY=0;entryDx=0;entryDy=0;startArrow=classic;startFill=1;elbow=vertical;fontSize=16;strokeWidth=2;" parent="1" source="35" target="37" edge="1">
                    <mxGeometry relative="1" as="geometry">
                        <Array as="points">
                            <mxPoint x="420" y="350"/>
                            <mxPoint x="420" y="350"/>
                        </Array>
                    </mxGeometry>
                </mxCell>
                <mxCell id="35" value="Grafana" style="rounded=1;whiteSpace=wrap;html=1;fontSize=16;strokeWidth=2;" parent="1" vertex="1">
                    <mxGeometry x="360" y="270" width="120" height="60" as="geometry"/>
                </mxCell>
                <mxCell id="37" value="Nginx" style="rounded=1;whiteSpace=wrap;html=1;direction=east;fontSize=16;strokeWidth=2;" parent="1" vertex="1">
                    <mxGeometry x="390" y="445" width="120" height="60" as="geometry"/>
                </mxCell>
                <mxCell id="41" style="edgeStyle=orthogonalEdgeStyle;html=1;exitX=0.5;exitY=1;exitDx=0;exitDy=0;entryX=1;entryY=0.5;entryDx=0;entryDy=0;startArrow=classic;startFill=1;elbow=vertical;fontSize=16;strokeWidth=2;" parent="1" source="40" target="37" edge="1">
                    <mxGeometry relative="1" as="geometry"/>
                </mxCell>
                <mxCell id="40" value="Let's Encrypt" style="rounded=1;whiteSpace=wrap;html=1;fontSize=16;strokeWidth=2;" parent="1" vertex="1">
                    <mxGeometry x="520" y="380" width="120" height="60" as="geometry"/>
                </mxCell>
            </root>
        </mxGraphModel>
    </diagram>
</mxfile>